<svg xmlns="http://www.w3.org/2000/svg" viewBox="0 0 199.38008 83.925855">
  <g font-weight="700" font-size="40" font-family="sans-serif" letter-spacing="0" word-spacing="0">
    <g style="line-height:125%">
      <path d="M.610551 0h7.519531v11.11328h11.09375V0h7.519532v29.16015h-7.519532V16.79687H8.130082v12.36328H.610551V0zM51.82149 23.84765H40.06368l-1.85547 5.3125h-7.558596L41.4504 0h8.96484l10.80078 29.16015h-7.55859l-1.83594-5.3125zm-9.88281-5.41015h7.98828L45.94258 6.83593l-4.0039 11.60157zM58.85274 0h7.55859l7.73438 21.52343L81.86055 0h7.55859L78.61836 29.16015h-8.96484L58.85274 0zM93.2668 0h20.29297v5.68359h-12.77344v5.42969h12.01172v5.68359h-12.01172v6.67969h13.20313v5.68359H93.2668V0zm38.76953 0h7.20703l5.03907 21.1914 5-21.1914h7.24609l5 21.1914L166.56758 0h7.14844l-6.875 29.16015h-8.67188l-5.29296-22.16797-5.23438 22.16797h-8.67187L132.03633 0zm46.6211 0h20.29296v5.68359h-12.77343v5.42969h12.01172v5.68359h-12.01172v6.67969h13.20312v5.68359h-20.72265V0z" style="-inkscape-font-specification:'sans-serif Bold'"/>
    </g>
    <g style="line-height:125%">
      <path d="M-2.5e-7 39.6701077H40.7876098v8.62586178H26.11474055v35.6298832H14.70251229v-35.6298832H-2.5e-7V39.6701077zM62.8710143 59.29321893q3.586699 0 5.12809872-1.33390272 1.5710248-1.33390272 1.5710248-4.38703154 0-3.02350373-1.5710248-4.3277662-1.54139972-1.30424728-5.12809872-1.30424728h-4.80202552v11.35294774h4.80202552zm-4.80202552 7.88480977v16.74782397H46.65676052V39.6701077H64.0863408q8.744438 0 12.8054115 2.93456778 4.09061377 2.93458295 4.09061377 9.277993 0 4.38704672-2.13423525 7.20305346-2.10459499 2.81600674-6.37306549 4.14989429 2.34173224.5335702 4.17954972 2.4306682 1.86745775 1.86744256 3.76455575 5.691294l6.19520875 12.56827424H74.4610993l-5.39487624-10.99724945q-1.63032049-3.3199215-3.3199215-4.53524801-1.65996075-1.2153265-4.44632723-1.2153265h-3.23098554zm35.30380999-27.507921h11.41222826v44.25574497H93.37279877V39.6701077zm22.64659978 0h30.79820225v8.62586178h-19.385974v8.24052323h18.229928v8.62586178h-18.229928v10.13762123h20.03810522v8.62587695h-31.45033348V39.6701077zm52.91124701 8.62586178v27.00400624h4.09061377q6.99555647 0 10.67117625-3.4681228 3.70527522-3.46813797 3.70527522-10.07834071 0-6.58056248-3.67561978-10.01904502-3.67563497-3.43849771-10.70083169-3.43849771h-4.09061377zM157.5184173 39.6701077h12.03471924q10.07832553 0 14.99892726 1.45246376 4.950242 1.4228235 8.47766049 4.86132121 3.1124245 2.9938483 4.62416878 6.90662051 1.51175946 3.91275704 1.51175946 8.86299903 0 5.0095225-1.51175946 8.95193498-1.51174427 3.91275704-4.62416878 6.90662051-3.55705875 3.43848254-8.536941 4.89096147-4.97988225 1.4228235-14.93964675 1.4228235H157.5184173V39.6701077z" style="-inkscape-font-specification:'sans-serif Bold'"/>
    </g>
  </g>
</svg>
